<?xml version="1.0" encoding="utf-8"?>
<!-- Generator: Adobe Illustrator 14.0.0, SVG Export Plug-In . SVG Version: 6.00 Build 43363)  -->
<!DOCTYPE svg PUBLIC "-//W3C//DTD SVG 1.1//EN" "http://www.w3.org/Graphics/SVG/1.1/DTD/svg11.dtd">
<svg version="1.1" id="Layer_1" xmlns="http://www.w3.org/2000/svg" xmlns:xlink="http://www.w3.org/1999/xlink" x="0px" y="0px"
	 width="51.449px" height="243.318px" viewBox="0 0 51.449 243.318" enable-background="new 0 0 51.449 243.318"
	 xml:space="preserve">
<g opacity="0.5">
	<path fill="none" stroke="#000000" stroke-width="0.5" stroke-linecap="round" stroke-linejoin="round" d="M21.254,144.851
		c-0.395-0.048-0.755,0.232-0.806,0.626c-0.062,0.492,0.29,0.943,0.783,1.007c0.615,0.077,1.178-0.358,1.257-0.977
		c0.097-0.771-0.448-1.475-1.221-1.571c-0.963-0.122-1.842,0.561-1.964,1.524c-0.152,1.205,0.702,2.303,1.905,2.455
		c1.505,0.188,2.879-0.879,3.07-2.381c0,0,1.23-14.441,1.23-21.486"/>
	<path fill="none" stroke="#000000" stroke-width="0.5" stroke-linecap="round" stroke-linejoin="round" d="M29.764,144.851
		c0.397-0.048,0.756,0.232,0.809,0.626c0.059,0.492-0.288,0.943-0.78,1.007c-0.619,0.077-1.183-0.358-1.258-0.977
		c-0.099-0.771,0.448-1.475,1.219-1.571c0.965-0.122,1.843,0.561,1.962,1.524c0.155,1.205-0.699,2.303-1.902,2.455
		c-1.506,0.188-2.879-0.879-3.07-2.381c0,0-1.23-14.441-1.23-21.486"/>
	<path fill="none" stroke="#000000" stroke-width="0.5" stroke-miterlimit="10" d="M23.125,151.056l2.385,3.174l2.385-3.174
		c0,0-2.385,8.439-2.385,23.625C25.51,159.496,23.125,151.056,23.125,151.056z"/>
	<circle fill="none" stroke="#000000" stroke-width="0.5" stroke-miterlimit="10" cx="25.492" cy="175.896" r="1.312"/>
	<circle fill="none" stroke="#000000" stroke-width="0.5" stroke-miterlimit="10" cx="25.502" cy="149.239" r="1.753"/>
	<circle fill="none" stroke="#000000" stroke-width="0.5" stroke-miterlimit="10" cx="25.502" cy="122.269" r="1.753"/>
	<path fill="none" stroke="#000000" stroke-width="0.5" stroke-linecap="round" stroke-linejoin="round" d="M21.254,99.712
		c-0.395,0.048-0.755-0.232-0.806-0.626c-0.062-0.492,0.29-0.943,0.783-1.007c0.615-0.077,1.178,0.358,1.257,0.977
		c0.097,0.771-0.448,1.476-1.221,1.571c-0.963,0.122-1.842-0.561-1.964-1.523c-0.152-1.206,0.702-2.304,1.905-2.456
		c1.505-0.188,2.879,0.879,3.07,2.381c0,0,1.23,14.441,1.23,21.486"/>
	<path fill="none" stroke="#000000" stroke-width="0.5" stroke-linecap="round" stroke-linejoin="round" d="M29.764,99.712
		c0.397,0.048,0.756-0.232,0.809-0.626c0.059-0.492-0.288-0.943-0.78-1.007c-0.619-0.077-1.183,0.358-1.258,0.977
		c-0.099,0.771,0.448,1.476,1.219,1.571c0.965,0.122,1.843-0.561,1.962-1.523c0.155-1.206-0.699-2.304-1.902-2.456
		c-1.506-0.188-2.879,0.879-3.07,2.381c0,0-1.23,14.441-1.23,21.486"/>
	<path fill="none" stroke="#000000" stroke-width="0.5" stroke-miterlimit="10" d="M23.125,93.507l2.385-3.174l2.385,3.174
		c0,0-2.385-8.439-2.385-23.625C25.51,85.068,23.125,93.507,23.125,93.507z"/>
	<circle fill="none" stroke="#000000" stroke-width="0.5" stroke-miterlimit="10" cx="25.492" cy="68.667" r="1.312"/>
	<circle fill="none" stroke="#000000" stroke-width="0.5" stroke-miterlimit="10" cx="25.502" cy="95.324" r="1.753"/>
</g>
</svg>
